<?xml version="1.0" standalone="no"?>
<!DOCTYPE svg PUBLIC "-//W3C//DTD SVG 20010904//EN"
 "http://www.w3.org/TR/2001/REC-SVG-20010904/DTD/svg10.dtd">
<svg version="1.0" xmlns="http://www.w3.org/2000/svg"
 width="512.000000pt" height="512.000000pt" viewBox="0 0 512.000000 512.000000"
 preserveAspectRatio="xMidYMid meet">

<g transform="translate(0.000000,512.000000) scale(0.100000,-0.100000)"
fill="#000000" stroke="none">
<path d="M1017 4072 c-110 -110 -177 -185 -177 -197 0 -13 230 -250 662 -682
l663 -663 -663 -663 c-428 -428 -662 -669 -662 -682 0 -27 348 -375 375 -375
13 0 246 226 682 662 l663 663 663 -663 c486 -486 668 -662 685 -662 33 0 372
337 372 370 0 19 -146 171 -662 687 l-663 663 663 663 c436 436 662 669 662
682 0 27 -348 375 -375 375 -13 0 -254 -234 -682 -662 l-663 -663 -663 663
c-433 433 -669 662 -682 662 -13 0 -86 -66 -198 -178z"/>
</g>
</svg>
